<?xml version="1.0" standalone="no"?><!DOCTYPE svg PUBLIC "-//W3C//DTD SVG 1.1//EN" "http://www.w3.org/Graphics/SVG/1.1/DTD/svg11.dtd"><svg t="1589099119062" class="icon" viewBox="0 0 1024 1024" version="1.1" xmlns="http://www.w3.org/2000/svg" p-id="15525" xmlns:xlink="http://www.w3.org/1999/xlink" width="200" height="200"><defs><style type="text/css"></style></defs><path d="M257.340156 372.412917c0 16.985354 13.672607 30.718193 30.657962 30.718193h446.919593a30.718193 30.718193 0 1 0 0-61.436386h-446.919593a30.718193 30.718193 0 0 0-30.718193 30.718193z m30.657962 197.499912h446.919593a30.718193 30.718193 0 0 0 0-61.496618h-446.919593a30.718193 30.718193 0 0 0 0 61.436386z m108.537615-508.355979h85.28816v43.246397H418.339627a30.718193 30.718193 0 0 0 0 61.496618h188.404917a30.718193 30.718193 0 0 0 0-61.436386H543.320511V61.496618H629.451915a30.718193 30.718193 0 0 0 0-61.496618H396.535733a30.718193 30.718193 0 0 0 0 61.496618z m566.118229 757.835892s-0.301159-610.509029-0.602318-612.135287a134.316805 134.316805 0 0 0-12.528204-49.028645 127.329922 127.329922 0 0 0-56.497383-61.135227c-30.115876-16.202341-58.605494-16.925122-61.797776-16.985354h-0.120464l-54.389271-0.240927h-0.120464a30.718193 30.718193 0 0 0-0.120463 61.496618l53.967649 0.240927c1.566026 0.060232 18.430916 1.02394 35.115111 10.600788 20.478795 11.805423 32.103523 31.501206 35.295806 60.171519 0.240927 3.132051 0.361391 660.07976 0.36139 660.07976 0 44.571496-34.39233 80.83101-76.614787 80.83101H549.223222v0.602318H198.373272c-42.222458 0-76.614787-36.259514-76.614787-80.83101 0 0 0.120464-657.007941 0.301159-660.139992 3.252515-28.610082 14.877243-48.366096 35.356037-60.171519 16.684195-9.576848 33.488854-10.540556 35.05488-10.600788l54.02788-0.180696a30.718193 30.718193 0 0 0-0.120463-61.496618h-0.120464l-54.389271 0.180696h-0.180695c-3.192283 0-31.681901 0.783013-61.737545 17.045585C101.219458 113.295924 65.682725 145.881301 60.38233 212.859008a24.152932 24.152932 0 0 0 0 4.878772C60.261867 219.303806 60.261867 220.809599 60.261867 222.315393v650.743839c0 78.42174 61.91824 142.327628 138.111405 142.327628l626.229516-0.602318c76.132933 0 138.111405-63.243339 138.111405-141.72531l-0.060231-53.606259zM285.588848 733.68296h307.483089a27.827069 27.827069 0 0 0 0-55.654138H285.528616a27.766837 27.766837 0 0 0 0 55.654138z m300.857596 159.312981a27.706605 27.706605 0 0 0 38.789248 0l171.178637-167.263572a27.766837 27.766837 0 1 0-38.789248-39.752956l-151.784013 148.230339-43.00547-42.162225a27.887301 27.887301 0 0 0-38.84948 39.752955l62.460326 61.195459z" p-id="15526" fill="#1296db"></path></svg>