<?xml version="1.0" standalone="no"?><!DOCTYPE svg PUBLIC "-//W3C//DTD SVG 1.1//EN" "http://www.w3.org/Graphics/SVG/1.1/DTD/svg11.dtd"><svg t="1589098923866" class="icon" viewBox="0 0 1024 1024" version="1.1" xmlns="http://www.w3.org/2000/svg" p-id="1404" xmlns:xlink="http://www.w3.org/1999/xlink" width="200" height="200"><defs><style type="text/css"></style></defs><path d="M268.16512 144.01536v497.2544c11.96032 191.16032-68.68992 318.09536-241.90976 380.80512v-125.41952c41.7792-41.82016 61.19424-115.01568 58.20416-219.5456V18.55488h927.37536v824.32c0 101.5808-50.7904 152.33024-152.33024 152.33024h-120.95488v-116.49024h35.84c35.84 2.99008 52.26496-16.384 49.27488-58.24512V144.01536h-183.66464v62.6688h147.8656V327.68h-147.8656v67.1744h165.76512v120.99584H286.06464V394.8544h170.27072V327.68H308.4288V206.72512h147.8656V144.01536H268.16512z m510.73024 416.60416v192.67584c2.99008 98.54976-47.80032 147.82464-152.3712 147.82464H317.44v-340.50048h461.45536z m-295.7312 120.99584v103.0144h76.1856c35.84 2.99008 52.26496-14.90944 49.27488-53.73952V681.5744h-125.41952z" p-id="1405" fill="#1296db"></path></svg>